STARTFONT 2.1
FONT -FontForge-VCR OSD Mono-Book-R-Normal--32-310-75-75-P-144-ISO10646-1
SIZE 31 75 75
FONTBOUNDINGBOX 19 30 0 -1
COMMENT "Generated by fontforge, http://fontforge.sourceforge.net"
STARTPROPERTIES 39
FOUNDRY "FontForge"
FAMILY_NAME "VCR OSD Mono"
WEIGHT_NAME "Book"
SLANT "R"
SETWIDTH_NAME "Normal"
ADD_STYLE_NAME ""
PIXEL_SIZE 32
POINT_SIZE 310
RESOLUTION_X 75
RESOLUTION_Y 75
SPACING "P"
AVERAGE_WIDTH 144
CHARSET_REGISTRY "ISO10646"
CHARSET_ENCODING "1"
FONTNAME_REGISTRY ""
CHARSET_COLLECTIONS "ISO10646-1"
FONT_NAME "VCROSDMono"
FACE_NAME "VCR OSD Mono"
FONT_VERSION "1.001 March 31, 2015"
FONT_ASCENT 26
FONT_DESCENT 6
UNDERLINE_POSITION -5
UNDERLINE_THICKNESS 3
X_HEIGHT 19
CAP_HEIGHT 22
DEFAULT_CHAR 1
RAW_ASCENT 799
RAW_DESCENT 200
NORM_SPACE 9
RELATIVE_WEIGHT 40
RELATIVE_SETWIDTH 50
SUPERSCRIPT_X 0
SUPERSCRIPT_Y 14
SUPERSCRIPT_SIZE 20
SUBSCRIPT_X 0
SUBSCRIPT_Y 4
SUBSCRIPT_SIZE 20
AVG_LOWERCASE_WIDTH 149
AVG_UPPERCASE_WIDTH 146
ENDPROPERTIES
CHARS 209
STARTCHAR NULL.dup1
ENCODING 0
SWIDTH 0 0
DWIDTH 0 0
BBX 1 1 0 0
BITMAP
00
ENDCHAR
STARTCHAR NULL
ENCODING 29
SWIDTH 0 0
DWIDTH 0 0
BBX 1 1 0 0
BITMAP
00
ENDCHAR
STARTCHAR space
ENCODING 32
SWIDTH 292 0
DWIDTH 9 0
BBX 1 1 0 0
BITMAP
00
ENDCHAR
STARTCHAR exclam
ENCODING 33
SWIDTH 292 0
DWIDTH 9 0
BBX 2 23 4 0
BITMAP
C0
C0
C0
C0
C0
C0
C0
C0
C0
C0
C0
C0
C0
C0
C0
C0
C0
C0
C0
00
C0
C0
C0
ENDCHAR
STARTCHAR quotedbl
ENCODING 34
SWIDTH 292 0
DWIDTH 10 0
BBX 6 8 2 15
BITMAP
FC
FC
FC
FC
FC
FC
48
48
ENDCHAR
STARTCHAR numbersign
ENCODING 35
SWIDTH 292 0
DWIDTH 9 0
BBX 7 22 1 1
BITMAP
6C
6C
6C
6E
7E
FE
FC
EC
6C
6C
6C
6C
6E
7E
7E
FC
EC
EC
6C
6C
60
60
ENDCHAR
STARTCHAR dollar
ENCODING 36
SWIDTH 292 0
DWIDTH 10 0
BBX 8 24 1 -1
BITMAP
3C
3C
3C
FE
FF
FF
DB
DB
DB
7C
7E
3E
1F
1F
DB
DB
FF
FF
FF
7E
3C
3C
18
18
ENDCHAR
STARTCHAR percent
ENCODING 37
SWIDTH 292 0
DWIDTH 10 0
BBX 8 23 1 0
BITMAP
73
F3
F3
F3
F3
FE
FE
FE
8E
0C
10
30
30
3E
7F
7F
CF
CF
CF
CF
CF
CF
CE
ENDCHAR
STARTCHAR ampersand
ENCODING 38
SWIDTH 292 0
DWIDTH 9 0
BBX 8 27 1 -1
BITMAP
10
5C
3C
6C
6C
6C
6C
6C
6C
6C
6C
7C
3C
30
70
70
DF
DF
CF
CE
CE
C6
E6
E6
7F
7F
3F
ENDCHAR
STARTCHAR quotesingle
ENCODING 39
SWIDTH 292 0
DWIDTH 9 0
BBX 3 6 3 17
BITMAP
E0
E0
E0
E0
E0
E0
ENDCHAR
STARTCHAR parenleft
ENCODING 40
SWIDTH 292 0
DWIDTH 9 0
BBX 5 30 3 -1
BITMAP
18
18
18
30
30
30
60
60
C0
C0
C0
C0
C0
C0
C0
C0
C0
C0
C0
C0
C0
C0
C0
C0
C0
60
60
30
18
18
ENDCHAR
STARTCHAR parenright
ENCODING 41
SWIDTH 292 0
DWIDTH 9 0
BBX 5 30 3 -1
BITMAP
C0
C0
C0
60
60
60
30
30
18
18
18
18
18
18
18
18
18
18
18
18
18
18
18
18
18
30
30
60
C0
C0
ENDCHAR
STARTCHAR asterisk
ENCODING 42
SWIDTH 292 0
DWIDTH 10 0
BBX 7 16 1 10
BITMAP
18
18
18
9A
DE
DE
7C
38
38
7C
7C
FC
9A
9A
18
18
ENDCHAR
STARTCHAR plus
ENCODING 43
SWIDTH 292 0
DWIDTH 9 0
BBX 8 17 1 3
BITMAP
18
18
18
18
18
18
FF
FF
FF
18
18
18
18
18
18
18
18
ENDCHAR
STARTCHAR comma
ENCODING 44
SWIDTH 292 0
DWIDTH 9 0
BBX 4 7 2 1
BITMAP
30
30
30
20
60
C0
C0
ENDCHAR
STARTCHAR hyphen
ENCODING 45
SWIDTH 292 0
DWIDTH 9 0
BBX 6 3 2 11
BITMAP
FC
FC
FC
ENDCHAR
STARTCHAR period
ENCODING 46
SWIDTH 146 0
DWIDTH 5 0
BBX 2 3 1 2
BITMAP
C0
C0
C0
ENDCHAR
STARTCHAR slash
ENCODING 47
SWIDTH 292 0
DWIDTH 10 0
BBX 8 24 1 -1
BITMAP
03
03
03
03
03
07
07
06
06
0C
18
18
18
18
30
60
60
E0
E0
C0
C0
C0
C0
C0
ENDCHAR
STARTCHAR zero
ENCODING 48
SWIDTH 292 0
DWIDTH 10 0
BBX 8 24 1 -1
BITMAP
3C
3E
7E
E7
E7
E7
C3
C3
C7
CB
DB
D3
D3
D3
E3
E3
C3
C3
E7
E7
E7
7E
7C
3C
ENDCHAR
STARTCHAR one
ENCODING 49
SWIDTH 292 0
DWIDTH 9 0
BBX 5 23 2 0
BITMAP
60
60
E0
E0
E0
E0
60
60
60
60
60
60
60
60
60
60
60
60
60
60
F8
F8
F8
ENDCHAR
STARTCHAR two
ENCODING 50
SWIDTH 292 0
DWIDTH 10 0
BBX 8 23 1 0
BITMAP
7E
7E
7E
E7
E7
E7
03
03
07
3E
3C
7C
E0
E0
C0
C0
C0
C0
C0
C0
FF
FF
FF
ENDCHAR
STARTCHAR three
ENCODING 51
SWIDTH 292 0
DWIDTH 10 0
BBX 8 23 1 0
BITMAP
7E
7E
7E
E7
E7
E7
03
03
07
1E
1E
1E
07
07
03
03
C3
E7
E7
E7
7E
7E
3C
ENDCHAR
STARTCHAR four
ENCODING 52
SWIDTH 292 0
DWIDTH 9 0
BBX 9 24 0 -1
BITMAP
0600
0600
0E00
1E00
1E00
1600
3600
2600
6600
6600
E600
C600
C600
FF80
FF80
FF80
0600
0600
0600
0600
0600
0600
0600
0600
ENDCHAR
STARTCHAR five
ENCODING 53
SWIDTH 292 0
DWIDTH 10 0
BBX 8 24 1 -1
BITMAP
FF
FF
FF
C0
C0
FC
FE
FE
07
07
03
03
03
03
03
03
C3
C3
E7
E7
E7
7E
3C
3C
ENDCHAR
STARTCHAR six
ENCODING 54
SWIDTH 292 0
DWIDTH 10 0
BBX 8 24 1 -1
BITMAP
7E
7E
7E
E7
E7
E7
C0
C0
C0
FC
FE
FE
C7
C7
C3
C3
C3
C3
E7
E7
E7
7E
7C
3C
ENDCHAR
STARTCHAR seven
ENCODING 55
SWIDTH 292 0
DWIDTH 10 0
BBX 8 24 1 -1
BITMAP
FF
FF
FF
03
03
03
03
07
07
06
0C
0C
1C
1C
18
18
18
18
18
18
18
18
18
18
ENDCHAR
STARTCHAR eight
ENCODING 56
SWIDTH 292 0
DWIDTH 10 0
BBX 8 24 1 -1
BITMAP
3C
3E
7E
E7
E7
E7
E7
E7
E7
E7
E7
7E
FE
EF
C3
C3
C3
C3
E7
E7
F7
7E
7C
3C
ENDCHAR
STARTCHAR nine
ENCODING 57
SWIDTH 292 0
DWIDTH 10 0
BBX 8 24 1 -1
BITMAP
3C
3E
7E
E7
E7
E7
C3
C3
E3
7F
7F
3F
03
03
03
03
C3
C3
E7
F7
7F
7E
3C
3C
ENDCHAR
STARTCHAR colon
ENCODING 58
SWIDTH 146 0
DWIDTH 5 0
BBX 2 17 1 3
BITMAP
C0
C0
C0
00
00
00
00
00
00
00
00
00
00
00
C0
C0
C0
ENDCHAR
STARTCHAR semicolon
ENCODING 59
SWIDTH 146 0
DWIDTH 5 0
BBX 4 20 0 0
BITMAP
30
30
30
00
00
00
00
00
00
00
00
00
30
30
30
30
60
60
C0
C0
ENDCHAR
STARTCHAR less
ENCODING 60
SWIDTH 292 0
DWIDTH 9 0
BBX 8 28 1 -1
BITMAP
03
03
03
03
0F
06
0E
1C
1C
38
30
70
E0
E0
C0
C0
E0
F0
70
38
38
1C
1C
0E
0F
07
03
03
ENDCHAR
STARTCHAR equal
ENCODING 61
SWIDTH 292 0
DWIDTH 9 0
BBX 8 11 1 7
BITMAP
FF
FF
FF
00
00
00
00
00
FF
FF
FF
ENDCHAR
STARTCHAR greater
ENCODING 62
SWIDTH 292 0
DWIDTH 9 0
BBX 8 28 1 -1
BITMAP
C0
C0
C0
C0
E0
70
70
38
38
1C
1E
0E
07
07
03
03
07
06
0E
1C
1C
38
38
70
60
E0
C0
C0
ENDCHAR
STARTCHAR question
ENCODING 63
SWIDTH 292 0
DWIDTH 10 0
BBX 8 23 1 0
BITMAP
FE
FE
FE
C7
C7
C7
03
03
03
03
07
07
06
04
0C
18
18
18
18
00
18
18
18
ENDCHAR
STARTCHAR at
ENCODING 64
SWIDTH 292 0
DWIDTH 10 0
BBX 8 21 1 1
BITMAP
3C
7C
63
83
C3
FD
ED
ED
ED
ED
ED
EF
EF
9B
9B
80
C0
63
63
3C
7C
ENDCHAR
STARTCHAR A
ENCODING 65
SWIDTH 292 0
DWIDTH 10 0
BBX 8 25 1 -1
BITMAP
28
18
18
18
3C
3C
BD
E7
E7
E7
C3
C3
C3
C3
FF
FF
FF
C3
C3
C3
C3
C3
C3
C3
C3
ENDCHAR
STARTCHAR B
ENCODING 66
SWIDTH 292 0
DWIDTH 10 0
BBX 8 23 1 0
BITMAP
FC
FE
FE
C7
C7
C3
C3
C3
C7
FE
FE
FE
C7
C7
C3
C3
C3
C3
C7
C7
FE
FC
FC
ENDCHAR
STARTCHAR C
ENCODING 67
SWIDTH 292 0
DWIDTH 10 0
BBX 8 24 1 -1
BITMAP
7E
7E
7E
E7
E7
E7
C0
C0
C0
C0
C0
C0
C0
C0
C0
C0
C3
C3
E7
E7
E7
7E
3C
3C
ENDCHAR
STARTCHAR D
ENCODING 68
SWIDTH 292 0
DWIDTH 10 0
BBX 8 23 1 0
BITMAP
FC
FE
FE
C7
C7
C3
C3
C3
C3
C3
C3
C3
C3
C3
C3
C3
C3
C3
C7
C7
FE
FC
FC
ENDCHAR
STARTCHAR E
ENCODING 69
SWIDTH 292 0
DWIDTH 9 0
BBX 8 23 1 0
BITMAP
FF
FF
FF
C0
C0
C0
C0
C0
C0
FE
FE
FE
C0
C0
C0
C0
C0
C0
C0
C0
FF
FF
FF
ENDCHAR
STARTCHAR F
ENCODING 70
SWIDTH 292 0
DWIDTH 9 0
BBX 8 24 1 -1
BITMAP
FF
FF
FF
C0
C0
C0
C0
C0
C0
FE
FE
FE
C0
C0
C0
C0
C0
C0
C0
C0
C0
C0
C0
C0
ENDCHAR
STARTCHAR G
ENCODING 71
SWIDTH 292 0
DWIDTH 10 0
BBX 8 24 1 -1
BITMAP
7E
7E
7E
E7
E7
E7
C0
C0
C0
CF
CF
CF
C3
C3
C3
C3
C3
C3
E7
E7
E7
7E
7C
3C
ENDCHAR
STARTCHAR H
ENCODING 72
SWIDTH 292 0
DWIDTH 10 0
BBX 8 24 1 -1
BITMAP
C3
C3
C3
C3
C3
C3
C3
C3
C3
FF
FF
FF
C3
C3
C3
C3
C3
C3
C3
C3
C3
C3
C3
C3
ENDCHAR
STARTCHAR I
ENCODING 73
SWIDTH 292 0
DWIDTH 9 0
BBX 6 23 2 0
BITMAP
FC
FC
FC
30
30
30
30
30
30
30
30
30
30
30
30
30
30
30
30
30
FC
FC
FC
ENDCHAR
STARTCHAR J
ENCODING 74
SWIDTH 292 0
DWIDTH 9 0
BBX 9 24 0 -1
BITMAP
1F80
1F80
1F80
0600
0600
0600
0600
0600
0600
0600
0600
0600
0600
0600
0600
0600
C600
C600
EE00
EE00
7E00
7C00
3800
3800
ENDCHAR
STARTCHAR K
ENCODING 75
SWIDTH 292 0
DWIDTH 9 0
BBX 9 24 1 -1
BITMAP
C180
C180
C380
C700
C700
CC00
CE00
DC00
D800
F800
F000
F000
F000
F800
F800
DC00
DC00
CE00
C400
C700
C380
C380
C380
C180
ENDCHAR
STARTCHAR L
ENCODING 76
SWIDTH 292 0
DWIDTH 9 0
BBX 8 23 1 0
BITMAP
C0
C0
C0
C0
C0
C0
C0
C0
C0
C0
C0
C0
C0
C0
C0
C0
C0
C0
C0
C0
FF
FF
FF
ENDCHAR
STARTCHAR M
ENCODING 77
SWIDTH 292 0
DWIDTH 10 0
BBX 8 24 1 -1
BITMAP
C3
C3
C3
E7
E7
FF
FF
FF
FF
DB
DB
DB
DB
C3
C3
C3
C3
C3
C3
C3
C3
C3
C3
C3
ENDCHAR
STARTCHAR N
ENCODING 78
SWIDTH 292 0
DWIDTH 10 0
BBX 8 24 1 -1
BITMAP
C3
C3
C3
C3
C3
C3
E3
E3
E3
D3
D3
DB
DB
CB
CB
C7
C7
C7
C3
C3
C3
C3
C3
C3
ENDCHAR
STARTCHAR O
ENCODING 79
SWIDTH 292 0
DWIDTH 10 0
BBX 8 24 1 -1
BITMAP
3C
3E
7E
E7
E7
E7
C3
C3
C3
C3
C3
C3
C3
C3
C3
C3
C3
C3
E7
E7
E7
7E
7C
3C
ENDCHAR
STARTCHAR P
ENCODING 80
SWIDTH 292 0
DWIDTH 10 0
BBX 8 24 1 -1
BITMAP
FC
FE
FE
C7
C7
C3
C3
C3
C7
FE
FC
FC
C0
C0
C0
C0
C0
C0
C0
C0
C0
C0
C0
C0
ENDCHAR
STARTCHAR Q
ENCODING 81
SWIDTH 292 0
DWIDTH 10 0
BBX 8 23 1 0
BITMAP
3C
3E
7E
E7
E7
E7
C3
C3
C3
C3
C3
C3
DB
DB
DB
DB
CF
CF
E6
E6
7F
7B
3B
ENDCHAR
STARTCHAR R
ENCODING 82
SWIDTH 292 0
DWIDTH 10 0
BBX 8 24 1 -1
BITMAP
FC
FE
FE
C7
C7
C3
C3
C3
C7
FE
FC
FC
D0
D0
D8
D8
CC
CC
CE
CE
C7
C7
C3
C3
ENDCHAR
STARTCHAR S
ENCODING 83
SWIDTH 292 0
DWIDTH 10 0
BBX 8 23 1 0
BITMAP
7E
7E
7E
E7
E7
E7
C0
C0
E0
7C
7E
3E
07
07
03
03
C3
E7
E7
E7
7E
7E
3C
ENDCHAR
STARTCHAR T
ENCODING 84
SWIDTH 292 0
DWIDTH 9 0
BBX 8 24 1 -1
BITMAP
FF
FF
FF
18
18
18
18
18
18
18
18
18
18
18
18
18
18
18
18
18
18
18
18
18
ENDCHAR
STARTCHAR U
ENCODING 85
SWIDTH 292 0
DWIDTH 10 0
BBX 8 24 1 -1
BITMAP
C3
C3
C3
C3
C3
C3
C3
C3
C3
C3
C3
C3
C3
C3
C3
C3
C3
C3
E7
E7
E7
7E
7C
3C
ENDCHAR
STARTCHAR V
ENCODING 86
SWIDTH 292 0
DWIDTH 10 0
BBX 8 24 1 -1
BITMAP
C3
C3
C3
C3
C3
C3
C3
C3
C3
C3
C3
C3
C3
C3
E7
E7
66
66
3C
3C
18
18
18
18
ENDCHAR
STARTCHAR W
ENCODING 87
SWIDTH 292 0
DWIDTH 10 0
BBX 8 24 1 -1
BITMAP
C3
C3
C3
C3
C3
C3
C3
C3
C3
DB
DB
DB
DB
DB
DB
DB
DB
DB
FF
FF
FF
7E
24
24
ENDCHAR
STARTCHAR X
ENCODING 88
SWIDTH 292 0
DWIDTH 10 0
BBX 8 23 1 0
BITMAP
C3
C3
C3
C7
C7
C7
E7
E7
3E
38
38
38
3C
3C
7E
C7
E7
E7
C3
C3
C3
C3
C3
ENDCHAR
STARTCHAR Y
ENCODING 89
SWIDTH 292 0
DWIDTH 10 0
BBX 8 24 1 -1
BITMAP
C3
C3
C3
C3
C3
C3
C3
E7
66
66
7C
3C
3C
3C
18
18
18
18
18
18
18
18
18
18
ENDCHAR
STARTCHAR Z
ENCODING 90
SWIDTH 292 0
DWIDTH 9 0
BBX 8 23 1 0
BITMAP
FF
FF
FF
03
03
07
0F
0E
0C
0C
18
38
30
70
70
60
E0
C0
80
80
FF
FF
FF
ENDCHAR
STARTCHAR bracketleft
ENCODING 91
SWIDTH 292 0
DWIDTH 9 0
BBX 5 30 2 -1
BITMAP
F8
F8
F8
C0
C0
C0
C0
C0
C0
C0
C0
C0
C0
C0
C0
C0
C0
C0
C0
C0
C0
C0
C0
C0
C0
C0
C0
F8
F8
F8
ENDCHAR
STARTCHAR backslash
ENCODING 92
SWIDTH 292 0
DWIDTH 10 0
BBX 8 24 1 -1
BITMAP
C0
C0
C0
C0
C0
E0
E0
60
60
30
18
18
18
18
0C
06
06
07
07
03
03
03
03
03
ENDCHAR
STARTCHAR bracketright
ENCODING 93
SWIDTH 292 0
DWIDTH 9 0
BBX 5 30 2 -1
BITMAP
F8
F8
F8
18
18
18
18
18
18
18
18
18
18
18
18
18
18
18
18
18
18
18
18
18
18
18
18
F8
F8
F8
ENDCHAR
STARTCHAR asciicircum
ENCODING 94
SWIDTH 292 0
DWIDTH 9 0
BBX 8 9 1 14
BITMAP
10
38
38
7C
7C
7C
6E
C7
C7
ENDCHAR
STARTCHAR underscore
ENCODING 95
SWIDTH 292 0
DWIDTH 9 0
BBX 9 3 0 0
BITMAP
FF80
FF80
FF80
ENDCHAR
STARTCHAR grave
ENCODING 96
SWIDTH 292 0
DWIDTH 9 0
BBX 4 5 3 18
BITMAP
C0
E0
60
30
30
ENDCHAR
STARTCHAR a
ENCODING 97
SWIDTH 292 0
DWIDTH 9 0
BBX 9 20 1 0
BITMAP
7E00
3F00
3F00
0780
0380
0180
7D80
3980
7F80
E780
E380
C180
C180
C180
C180
E780
E380
7F80
7D80
3D80
ENDCHAR
STARTCHAR b
ENCODING 98
SWIDTH 292 0
DWIDTH 10 0
BBX 9 24 1 -1
BITMAP
C000
C000
C000
DC00
DC00
FC00
FC00
FE00
FE00
E380
E380
C380
C380
C380
C380
C380
E380
E380
FE00
FE00
FC00
FC00
DC00
DC00
ENDCHAR
STARTCHAR c
ENCODING 99
SWIDTH 292 0
DWIDTH 10 0
BBX 8 20 1 0
BITMAP
3C
7E
7E
F7
E7
E7
C3
C0
C0
C0
C0
C0
C3
C3
E7
EF
7E
7E
3C
3C
ENDCHAR
STARTCHAR d
ENCODING 100
SWIDTH 292 0
DWIDTH 10 0
BBX 8 24 1 -1
BITMAP
03
03
03
3B
3B
7F
3F
7F
7F
C7
C7
C3
C3
C3
C3
83
C7
C7
7F
7F
3F
3F
3B
3B
ENDCHAR
STARTCHAR e
ENCODING 101
SWIDTH 292 0
DWIDTH 10 0
BBX 8 21 1 0
BITMAP
30
3E
3E
7E
E7
E7
C3
C3
C3
FF
FE
FE
C0
C0
C0
C0
E7
E7
7E
3E
3E
ENDCHAR
STARTCHAR f
ENCODING 102
SWIDTH 292 0
DWIDTH 9 0
BBX 6 24 2 -1
BITMAP
1C
3C
3C
FC
FC
FC
30
30
30
30
30
30
30
30
30
30
30
30
30
30
30
30
30
30
ENDCHAR
STARTCHAR g
ENCODING 103
SWIDTH 292 0
DWIDTH 10 0
BBX 9 20 0 0
BITMAP
7F00
7F00
7F00
E380
E380
E380
E380
E380
7F80
3D80
3D80
0180
0180
0180
0180
6380
6380
7F00
3E00
3E00
ENDCHAR
STARTCHAR h
ENCODING 104
SWIDTH 292 0
DWIDTH 10 0
BBX 8 24 1 -1
BITMAP
C0
C0
C0
D8
D8
DC
DC
F6
F6
E7
E7
E3
E3
C3
C3
C3
C3
C3
C3
C3
C3
C3
C3
C3
ENDCHAR
STARTCHAR i
ENCODING 105
SWIDTH 292 0
DWIDTH 9 0
BBX 5 24 2 0
BITMAP
60
60
60
00
00
00
00
00
E0
E0
E0
60
60
60
60
60
60
60
60
70
38
38
18
18
ENDCHAR
STARTCHAR j
ENCODING 106
SWIDTH 292 0
DWIDTH 9 0
BBX 5 27 2 0
BITMAP
18
18
18
00
00
00
00
00
78
78
78
18
18
18
18
18
18
18
18
18
18
18
38
38
F0
E0
E0
ENDCHAR
STARTCHAR k
ENCODING 107
SWIDTH 292 0
DWIDTH 10 0
BBX 8 24 1 -1
BITMAP
C0
C0
C0
C3
C3
C7
C6
CE
DC
DC
D8
D8
F0
F0
F8
F8
FC
FC
CE
CE
C7
C7
C3
C3
ENDCHAR
STARTCHAR l
ENCODING 108
SWIDTH 292 0
DWIDTH 9 0
BBX 2 24 4 -1
BITMAP
C0
C0
C0
C0
C0
C0
C0
C0
C0
C0
C0
C0
C0
C0
C0
C0
C0
C0
C0
C0
C0
C0
C0
C0
ENDCHAR
STARTCHAR m
ENCODING 109
SWIDTH 292 0
DWIDTH 10 0
BBX 8 20 1 0
BITMAP
DC
DC
FE
FF
FF
DB
DB
DB
DB
DB
DB
DB
DB
DB
DB
DB
DB
DB
DB
DB
ENDCHAR
STARTCHAR n
ENCODING 110
SWIDTH 292 0
DWIDTH 10 0
BBX 8 20 1 0
BITMAP
DC
DC
FE
E7
E7
C3
C3
C3
C3
C3
C3
C3
C3
C3
C3
C3
C3
C3
C3
C3
ENDCHAR
STARTCHAR o
ENCODING 111
SWIDTH 292 0
DWIDTH 10 0
BBX 8 20 1 0
BITMAP
3C
3E
7E
E7
E7
E7
C3
C3
C3
C3
C3
C3
C3
C3
E7
E7
E7
7E
7C
3C
ENDCHAR
STARTCHAR p
ENCODING 112
SWIDTH 292 0
DWIDTH 10 0
BBX 8 20 1 0
BITMAP
FC
FE
FE
E7
E7
E7
C3
C3
C3
E7
E7
E7
FE
FC
FC
C0
C0
C0
C0
C0
ENDCHAR
STARTCHAR q
ENCODING 113
SWIDTH 292 0
DWIDTH 10 0
BBX 8 20 1 0
BITMAP
3B
3B
7F
E7
E7
E7
C7
C7
C7
E7
E7
7F
3F
3F
03
03
03
03
03
03
ENDCHAR
STARTCHAR r
ENCODING 114
SWIDTH 292 0
DWIDTH 9 0
BBX 8 21 1 0
BITMAP
06
CE
DE
DE
FB
F3
F1
F1
E0
E0
C0
C0
C0
C0
C0
C0
C0
C0
C0
C0
C0
ENDCHAR
STARTCHAR s
ENCODING 115
SWIDTH 292 0
DWIDTH 10 0
BBX 8 20 1 0
BITMAP
3C
7E
7E
E7
E7
E3
E3
78
78
1E
0E
0E
C7
C7
E7
E7
67
7E
3C
3C
ENDCHAR
STARTCHAR t
ENCODING 116
SWIDTH 292 0
DWIDTH 9 0
BBX 6 24 2 -1
BITMAP
30
30
30
FC
FC
FC
30
30
30
30
30
30
30
30
30
30
30
30
38
38
1C
1C
0C
0C
ENDCHAR
STARTCHAR u
ENCODING 117
SWIDTH 292 0
DWIDTH 10 0
BBX 8 20 1 0
BITMAP
C3
C3
C3
C3
C3
C3
C3
C3
C3
C3
C3
C3
C3
C3
E7
E7
E7
7E
7C
3C
ENDCHAR
STARTCHAR v
ENCODING 118
SWIDTH 292 0
DWIDTH 10 0
BBX 8 20 1 0
BITMAP
C3
C3
C3
C3
C3
C3
C3
C3
C3
C3
C3
E7
66
66
3C
3C
3C
18
18
18
ENDCHAR
STARTCHAR w
ENCODING 119
SWIDTH 292 0
DWIDTH 10 0
BBX 8 20 1 0
BITMAP
C3
C3
C3
C3
C3
C3
C3
C3
DB
DB
DB
DB
DB
DB
FF
FF
FF
7E
64
24
ENDCHAR
STARTCHAR x
ENCODING 120
SWIDTH 292 0
DWIDTH 10 0
BBX 8 20 1 0
BITMAP
C3
C7
E7
7E
7E
7E
3C
18
38
10
10
38
3C
3C
7E
7E
7E
E7
C3
C3
ENDCHAR
STARTCHAR y
ENCODING 121
SWIDTH 292 0
DWIDTH 10 0
BBX 8 20 1 0
BITMAP
C3
C3
C3
C7
C7
C7
CF
EF
EF
EF
7B
73
33
03
03
07
07
3E
3C
3C
ENDCHAR
STARTCHAR z
ENCODING 122
SWIDTH 292 0
DWIDTH 9 0
BBX 8 20 1 0
BITMAP
FF
FF
FF
07
07
0F
0E
0E
0C
18
18
30
30
70
70
60
60
FF
FF
FF
ENDCHAR
STARTCHAR braceleft
ENCODING 123
SWIDTH 292 0
DWIDTH 10 0
BBX 6 30 2 -1
BITMAP
1C
1C
1C
1C
1C
1C
30
30
30
30
30
30
30
E0
E0
E0
30
30
30
30
30
30
30
30
3C
3C
1C
1C
1C
1C
ENDCHAR
STARTCHAR bar
ENCODING 124
SWIDTH 292 0
DWIDTH 9 0
BBX 2 30 4 -1
BITMAP
C0
C0
C0
C0
C0
C0
C0
C0
C0
C0
C0
C0
C0
C0
C0
C0
C0
C0
C0
C0
C0
C0
C0
C0
C0
C0
C0
C0
C0
C0
ENDCHAR
STARTCHAR braceright
ENCODING 125
SWIDTH 292 0
DWIDTH 10 0
BBX 6 30 2 -1
BITMAP
E0
E0
E0
E0
E0
E0
30
30
30
30
30
30
30
1C
1C
1C
30
30
30
30
30
30
30
30
F0
F0
E0
E0
E0
E0
ENDCHAR
STARTCHAR asciitilde
ENCODING 126
SWIDTH 292 0
DWIDTH 9 0
BBX 8 6 1 9
BITMAP
71
73
73
9E
8C
8C
ENDCHAR
STARTCHAR space.dup2
ENCODING 160
SWIDTH 292 0
DWIDTH 9 0
BBX 1 1 0 0
BITMAP
00
ENDCHAR
STARTCHAR exclamdown
ENCODING 161
SWIDTH 585 0
DWIDTH 19 0
BBX 3 21 9 2
BITMAP
E0
E0
E0
00
00
E0
E0
E0
E0
E0
E0
E0
E0
E0
E0
E0
E0
E0
E0
E0
E0
ENDCHAR
STARTCHAR cent
ENCODING 162
SWIDTH 585 0
DWIDTH 19 0
BBX 15 21 2 2
BITMAP
0380
0380
0380
1FF0
7FFC
7FFC
FBBE
FBBE
E38E
E380
E380
E380
E38E
FBBE
FBBE
7FFC
7FFC
1FF0
0380
0380
0380
ENDCHAR
STARTCHAR sterling
ENCODING 163
SWIDTH 585 0
DWIDTH 19 0
BBX 15 24 2 2
BITMAP
03F0
0FFC
0FFC
1F1E
1F1E
1C0E
1C00
1C00
1C00
FFF0
FFF0
FFF0
1C00
1C00
1C00
1C00
1C00
1C00
1C00
1800
7800
FFFE
FFFE
FFFE
ENDCHAR
STARTCHAR yen
ENCODING 165
SWIDTH 585 0
DWIDTH 19 0
BBX 12 21 3 2
BITMAP
E070
E070
E070
E070
E070
38E0
38E0
38E0
1F80
1F80
1F80
0700
FFF0
FFF0
0700
0700
0700
FFF0
FFF0
0700
0700
ENDCHAR
STARTCHAR brokenbar
ENCODING 166
SWIDTH 585 0
DWIDTH 19 0
BBX 3 25 8 2
BITMAP
E0
E0
E0
E0
E0
E0
E0
E0
E0
E0
E0
00
00
00
E0
E0
E0
E0
E0
E0
E0
E0
E0
E0
E0
ENDCHAR
STARTCHAR dieresis
ENCODING 168
SWIDTH 585 0
DWIDTH 19 0
BBX 9 3 5 20
BITMAP
E380
E380
E380
ENDCHAR
STARTCHAR copyright
ENCODING 169
SWIDTH 585 0
DWIDTH 19 0
BBX 16 17 1 5
BITMAP
1FF8
1FF8
380E
E1F7
E1F7
C701
C601
C601
C601
C601
C601
C701
E1F7
E1F7
380E
1FF8
1FF8
ENDCHAR
STARTCHAR ordfeminine
ENCODING 170
SWIDTH 585 0
DWIDTH 19 0
BBX 11 17 3 6
BITMAP
3F80
3F80
E0E0
E0E0
3FE0
3FE0
E0E0
80E0
80E0
E0E0
3F60
3F60
0000
0000
FFE0
FFE0
FFE0
ENDCHAR
STARTCHAR guillemotleft
ENCODING 171
SWIDTH 585 0
DWIDTH 19 0
BBX 17 14 1 5
BITMAP
018180
018180
070700
0E0E00
0E0E00
383800
F07000
F0F000
383800
383800
0E0E00
070700
078780
018180
ENDCHAR
STARTCHAR hyphen.dup3
ENCODING 173
SWIDTH 292 0
DWIDTH 9 0
BBX 6 3 2 11
BITMAP
FC
FC
FC
ENDCHAR
STARTCHAR registered
ENCODING 174
SWIDTH 585 0
DWIDTH 19 0
BBX 16 15 1 8
BITMAP
1FF8
1FF8
380E
E7C7
E7C7
C631
C631
C7C1
C7C1
C631
E637
E637
380E
1FF8
1FF8
ENDCHAR
STARTCHAR degree
ENCODING 176
SWIDTH 585 0
DWIDTH 19 0
BBX 12 12 2 11
BITMAP
1F80
1FE0
7FE0
F9F0
F9F0
E070
E070
F9F0
F9F0
7FE0
7F80
1F80
ENDCHAR
STARTCHAR uni00B2
ENCODING 178
SWIDTH 585 0
DWIDTH 19 0
BBX 8 11 5 15
BITMAP
3E
E7
E7
07
3C
3C
E0
E0
E0
FF
FF
ENDCHAR
STARTCHAR uni00B3
ENCODING 179
SWIDTH 585 0
DWIDTH 19 0
BBX 8 10 5 16
BITMAP
3E
E7
E7
07
1E
1E
07
E7
E7
3E
ENDCHAR
STARTCHAR acute
ENCODING 180
SWIDTH 585 0
DWIDTH 19 0
BBX 8 4 6 19
BITMAP
1F
1E
3E
E0
ENDCHAR
STARTCHAR uni00B9
ENCODING 185
SWIDTH 585 0
DWIDTH 19 0
BBX 7 12 6 15
BITMAP
38
38
F8
F8
38
38
38
38
38
38
FE
FE
ENDCHAR
STARTCHAR ordmasculine
ENCODING 186
SWIDTH 585 0
DWIDTH 19 0
BBX 11 17 3 6
BITMAP
1F00
1FC0
3FC0
E0E0
E0E0
E0E0
E0E0
E0E0
E0E0
3FC0
3F00
1F00
0000
0000
FFE0
FFE0
FFE0
ENDCHAR
STARTCHAR guillemotright
ENCODING 187
SWIDTH 585 0
DWIDTH 19 0
BBX 17 14 1 5
BITMAP
C0C000
C0C000
F0F000
383800
383800
1E1E00
170780
070780
0E0E00
0E0E00
383800
F0F000
E0E000
C0C000
ENDCHAR
STARTCHAR onequarter
ENCODING 188
SWIDTH 585 0
DWIDTH 19 0
BBX 17 24 2 2
BITMAP
780600
F81E00
F81E00
781800
787800
787800
786000
786000
79E000
FF8000
FF8000
018000
0E0000
060000
061E00
1E7E00
1E7E00
106600
79E600
61FF80
61FF80
E00600
800600
800600
ENDCHAR
STARTCHAR onehalf
ENCODING 189
SWIDTH 585 0
DWIDTH 19 0
BBX 16 25 2 1
BITMAP
7806
F81E
F81E
7818
7878
7878
7860
7860
79E0
FF80
FF80
0180
0E00
0600
067E
1FE7
1FE7
1007
787E
787E
61E0
61E0
E1E0
81FF
81FF
ENDCHAR
STARTCHAR threequarters
ENCODING 190
SWIDTH 585 0
DWIDTH 19 0
BBX 17 24 2 2
BITMAP
7E0080
E78380
E78380
078300
1E0F00
1E0F00
078C00
E73C00
E73C00
7E3000
01F000
007000
01C000
01C000
018F00
073F00
073F00
063300
1FF300
18FF80
187F80
780300
600300
600300
ENDCHAR
STARTCHAR questiondown
ENCODING 191
SWIDTH 585 0
DWIDTH 19 0
BBX 16 22 2 1
BITMAP
0380
0380
0380
0000
0000
0000
0380
0380
0780
1F00
1F00
7C00
F800
F800
E000
E007
E007
F81F
F81F
7FFC
1FF8
1FF8
ENDCHAR
STARTCHAR Agrave
ENCODING 192
SWIDTH 585 0
DWIDTH 19 0
BBX 15 24 2 2
BITMAP
1F00
1F80
0F80
01C0
01C0
0000
0380
0FC0
0FC0
1FF0
1FF0
7C7C
F03E
F03E
E00E
E00E
E00E
FFFE
FFFE
FFFE
E00E
E00E
E00E
E00E
ENDCHAR
STARTCHAR Aacute
ENCODING 193
SWIDTH 585 0
DWIDTH 19 0
BBX 15 24 2 2
BITMAP
01F0
01C0
07C0
0E20
0E00
0000
0700
0FC0
0FC0
1FF0
1FF0
787C
F03E
F03E
E00E
E00E
E00E
FFFE
FFFE
FFFE
E00E
E00E
E00E
E00E
ENDCHAR
STARTCHAR Acircumflex
ENCODING 194
SWIDTH 585 0
DWIDTH 19 0
BBX 15 24 2 2
BITMAP
0380
0380
0FC0
1C70
1C70
0000
0380
0FC0
0FC0
1FF0
1FF0
7C7C
F03E
F03E
E00E
E00E
E00E
FFFE
FFFE
FFFE
E00E
E00E
E00E
E00E
ENDCHAR
STARTCHAR Atilde
ENCODING 195
SWIDTH 585 0
DWIDTH 19 0
BBX 16 24 2 2
BITMAP
0F10
1FF8
1FF8
18E0
0000
0000
0380
0FE0
07E0
1FF8
1FF0
7E7C
F81F
F01F
E007
E007
E007
FFFF
FFFF
FFFF
E00F
E00F
E007
E007
ENDCHAR
STARTCHAR Adieresis
ENCODING 196
SWIDTH 585 0
DWIDTH 19 0
BBX 15 24 2 2
BITMAP
1C70
1C70
1C70
0000
0000
0000
0380
0FE0
0FE0
1FF0
1FF0
7C7C
F81E
F81E
E00E
E00E
E00E
FFFE
FFFE
FFFE
E00E
E00E
E00E
E00E
ENDCHAR
STARTCHAR Aring
ENCODING 197
SWIDTH 585 0
DWIDTH 19 0
BBX 15 25 2 2
BITMAP
0380
0380
0C60
0C60
0C60
0380
0380
0380
0FE0
0FE0
1FF0
1FF0
7C7C
F01E
F01E
E00E
E00E
E00E
FFFE
FFFE
FFFE
E00E
E00E
E00E
E00E
ENDCHAR
STARTCHAR AE
ENCODING 198
SWIDTH 585 0
DWIDTH 19 0
BBX 15 23 2 2
BITMAP
01FE
01FE
03FE
0FC0
0FC0
1FC0
7DC0
71C0
71C0
E1FE
E1FE
E1FE
E1C0
E1C0
FFC0
FFC0
FFC0
E1C0
E1C0
E1C0
E1FE
E1FE
E1FE
ENDCHAR
STARTCHAR Ccedilla
ENCODING 199
SWIDTH 585 0
DWIDTH 19 0
BBX 15 22 2 1
BITMAP
1FF0
7FFC
7FFC
F83E
F83E
E00E
E000
E000
E000
E000
E00E
E00E
F83E
F83E
7FFC
1FF0
1FF0
01C0
01C0
0780
1E00
1E00
ENDCHAR
STARTCHAR Egrave
ENCODING 200
SWIDTH 585 0
DWIDTH 19 0
BBX 16 24 2 2
BITMAP
1F00
1F80
0780
00E0
00E0
0000
FFFF
FFFF
FFFF
E000
E000
E000
E000
E000
FFF0
FFF0
FFF0
E000
E000
E000
E000
FFFF
FFFF
FFFF
ENDCHAR
STARTCHAR Eacute
ENCODING 201
SWIDTH 585 0
DWIDTH 19 0
BBX 16 24 2 2
BITMAP
01F0
01E0
03E0
0E00
0E00
0000
FFFF
FFFF
FFFF
E000
E000
E000
E000
E000
FFF0
FFF0
FFF0
E000
E000
E000
E000
FFFF
FFFF
FFFF
ENDCHAR
STARTCHAR Ecircumflex
ENCODING 202
SWIDTH 585 0
DWIDTH 19 0
BBX 16 24 2 2
BITMAP
0380
0380
07E0
1C70
1C70
0000
FFFF
FFFF
FFFF
E000
E000
E000
E000
E000
FFF0
FFF0
FFF0
E000
E000
E000
E000
FFFF
FFFF
FFFF
ENDCHAR
STARTCHAR Edieresis
ENCODING 203
SWIDTH 585 0
DWIDTH 19 0
BBX 16 24 2 2
BITMAP
1C70
1C70
1C70
0000
0000
0000
FFFF
FFFF
FFFF
E000
E000
E000
E000
E000
FFF0
FFF0
FFF0
E000
E000
E000
E000
FFFF
FFFF
FFFF
ENDCHAR
STARTCHAR Igrave
ENCODING 204
SWIDTH 585 0
DWIDTH 19 0
BBX 9 24 5 2
BITMAP
F000
FC00
7C00
0F00
0F00
0000
FF80
FF80
FF80
1C00
1C00
1C00
1C00
1C00
1C00
1C00
1C00
1C00
1C00
1C00
1C00
FF80
FF80
FF80
ENDCHAR
STARTCHAR Iacute
ENCODING 205
SWIDTH 585 0
DWIDTH 19 0
BBX 9 24 5 2
BITMAP
0780
0700
1F00
7800
7800
0000
FF80
FF80
FF80
1C00
1C00
1C00
1C00
1C00
1C00
1C00
1C00
1C00
1C00
1C00
1C00
FF80
FF80
FF80
ENDCHAR
STARTCHAR Icircumflex
ENCODING 206
SWIDTH 585 0
DWIDTH 19 0
BBX 9 24 5 2
BITMAP
1C00
1C00
7F00
E380
E380
0000
FF80
FF80
FF80
1C00
1C00
1C00
1C00
1C00
1C00
1C00
1C00
1C00
1C00
1C00
1C00
FF80
FF80
FF80
ENDCHAR
STARTCHAR Idieresis
ENCODING 207
SWIDTH 585 0
DWIDTH 19 0
BBX 9 24 5 2
BITMAP
E380
E380
E380
0000
0000
0000
FF80
FF80
FF80
1C00
1C00
1C00
1C00
1C00
1C00
1C00
1C00
1C00
1C00
1C00
1C00
FF80
FF80
FF80
ENDCHAR
STARTCHAR Eth
ENCODING 208
SWIDTH 585 0
DWIDTH 19 0
BBX 16 21 1 2
BITMAP
3FF8
3FFE
3FFE
381F
381F
3807
3807
3807
3807
FF07
FF07
FF07
3807
3807
3807
3807
3807
381F
3FFE
3FF8
3FF8
ENDCHAR
STARTCHAR Ntilde
ENCODING 209
SWIDTH 585 0
DWIDTH 19 0
BBX 16 24 2 2
BITMAP
0718
1FF8
1FF0
18E0
0000
0000
E007
E007
E007
F807
F807
FE07
FF07
E707
E787
E3E7
E0E7
E0FF
E07F
E01F
E01F
E00F
E007
E007
ENDCHAR
STARTCHAR Ograve
ENCODING 210
SWIDTH 585 0
DWIDTH 19 0
BBX 15 25 2 1
BITMAP
1E00
1F80
0780
01C0
01C0
0000
1FF0
1FFC
7FFC
F83E
F83E
E00E
E00E
E00E
E00E
E00E
E00E
E00E
E00E
E00E
F83E
F83E
7FFC
7FF0
1FF0
ENDCHAR
STARTCHAR Oacute
ENCODING 211
SWIDTH 585 0
DWIDTH 19 0
BBX 15 25 2 1
BITMAP
00F0
00C0
03C0
0700
0700
0000
1FF0
1FFC
7FFC
F83E
F83E
E00E
E00E
E00E
E00E
E00E
E00E
E00E
E00E
E00E
F83E
F83E
7FFC
7FF0
1FF0
ENDCHAR
STARTCHAR Ocircumflex
ENCODING 212
SWIDTH 585 0
DWIDTH 19 0
BBX 15 25 2 1
BITMAP
0380
0380
07C0
1C70
1C70
0000
1FF0
1FFC
7FFC
F83E
F83E
E00E
E00E
E00E
E00E
E00E
E00E
E00E
E00E
E00E
F83E
F83E
7FFC
7FF0
1FF0
ENDCHAR
STARTCHAR Otilde
ENCODING 213
SWIDTH 585 0
DWIDTH 19 0
BBX 15 25 2 1
BITMAP
0730
1FF0
1FF0
19C0
0000
0000
1FF0
1FFC
7FFC
F83E
F83E
E00E
E00E
E00E
E00E
E00E
E00E
E00E
E00E
E00E
F83E
F83E
7FFC
7FF0
1FF0
ENDCHAR
STARTCHAR Odieresis
ENCODING 214
SWIDTH 585 0
DWIDTH 20 0
BBX 16 25 2 1
BITMAP
1C70
1C70
1C70
0000
0000
0000
1FF0
1FFC
7FFC
F81F
F81F
E00F
E00F
E00F
E00F
E00F
E00F
E00F
E00F
E00F
F81F
F81F
7FFC
7FF0
1FF0
ENDCHAR
STARTCHAR Oslash
ENCODING 216
SWIDTH 585 0
DWIDTH 19 0
BBX 15 21 2 2
BITMAP
1FCE
1FCE
3FFE
F03E
F03E
E04E
E1CE
E1CE
E1CE
E1CE
E1CE
E1CE
EE0E
EE0E
EE0E
EE0E
FE3E
3E3E
FFFE
EFF0
EFF0
ENDCHAR
STARTCHAR Ugrave
ENCODING 217
SWIDTH 585 0
DWIDTH 19 0
BBX 15 25 2 1
BITMAP
1F00
1F80
0780
00E0
00E0
0000
E00E
E00E
E00E
E00E
E00E
E00E
E00E
E00E
E00E
E00E
E00E
E00E
E00E
E00E
F83E
F83E
7FFC
7FF0
1FF0
ENDCHAR
STARTCHAR Uacute
ENCODING 218
SWIDTH 585 0
DWIDTH 19 0
BBX 15 25 2 1
BITMAP
01F0
01C0
03C0
0E00
0E00
0000
E00E
E00E
E00E
E00E
E00E
E00E
E00E
E00E
E00E
E00E
E00E
E00E
E00E
E00E
F83E
F83E
7FFC
7FF0
1FF0
ENDCHAR
STARTCHAR Ucircumflex
ENCODING 219
SWIDTH 585 0
DWIDTH 19 0
BBX 15 25 2 1
BITMAP
0380
0380
0FE0
1C70
1C70
0000
E00E
E00E
E00E
E00E
E00E
E00E
E00E
E00E
E00E
E00E
E00E
E00E
E00E
E00E
F83E
F83E
7FFC
7FF0
1FF0
ENDCHAR
STARTCHAR Udieresis
ENCODING 220
SWIDTH 585 0
DWIDTH 19 0
BBX 15 25 2 1
BITMAP
1C70
1C70
1C70
0000
0000
0000
E00E
E00E
E00E
E00E
E00E
E00E
E00E
E00E
E00E
E00E
E00E
E00E
E00E
E00E
F83E
F83E
7FFC
7FF0
1FF0
ENDCHAR
STARTCHAR Yacute
ENCODING 221
SWIDTH 585 0
DWIDTH 19 0
BBX 15 24 2 2
BITMAP
01F0
01C0
03C0
0E00
0E00
0000
E00E
E00E
E00E
E00E
F03E
F03E
7C7C
7C7C
1FF0
0FC0
0FC0
0380
0380
0380
0380
0380
0380
0380
ENDCHAR
STARTCHAR Thorn
ENCODING 222
SWIDTH 585 0
DWIDTH 19 0
BBX 15 23 2 2
BITMAP
E000
E000
E000
E000
E000
FFF0
FFFC
FFFC
E03E
E03E
E00E
E00E
E00E
E00E
E03E
E03E
FFFC
FFF0
FFF0
E000
E000
E000
E000
ENDCHAR
STARTCHAR germandbls
ENCODING 223
SWIDTH 585 0
DWIDTH 19 0
BBX 13 25 2 2
BITMAP
1C00
1C00
7F80
7F80
F3C0
E1C0
E1C0
E1C0
E1C0
E1C0
E380
E380
E380
E380
E3C0
E3C0
E1F0
E078
E078
E038
E038
E038
EFF8
EFF0
EFF0
ENDCHAR
STARTCHAR agrave
ENCODING 224
SWIDTH 585 0
DWIDTH 19 0
BBX 16 21 1 2
BITMAP
1F00
1F80
0780
00E0
00E0
0010
1FF8
1FFE
1FFE
0007
0007
1FE7
7FFF
7FFF
F81F
E007
E007
F81F
7FFF
7FFF
1FE7
ENDCHAR
STARTCHAR aacute
ENCODING 225
SWIDTH 585 0
DWIDTH 19 0
BBX 16 21 1 2
BITMAP
00F8
00E0
01E0
0710
0700
0000
1FF8
1FFE
1FFE
0007
0007
1FE7
7FFF
7FFF
F81F
E007
E007
F81F
7FFF
7FFF
1FE7
ENDCHAR
STARTCHAR acircumflex
ENCODING 226
SWIDTH 585 0
DWIDTH 19 0
BBX 16 21 1 2
BITMAP
03C0
03C0
07E0
1C38
1C38
0000
1FF8
1FFE
1FFE
0007
0007
1FE7
7FFF
7FFF
F81F
E007
E007
F81F
7FFF
7FFF
1FE7
ENDCHAR
STARTCHAR atilde
ENCODING 227
SWIDTH 585 0
DWIDTH 19 0
BBX 16 21 1 2
BITMAP
0718
1FF8
1FF8
18E0
0000
0000
1FF8
1FFE
1FFE
0007
0007
1FE7
7FFF
7FFF
F81F
E007
E007
F81F
7FFF
7FFF
1FE7
ENDCHAR
STARTCHAR adieresis
ENCODING 228
SWIDTH 585 0
DWIDTH 20 0
BBX 17 21 1 2
BITMAP
1C3800
1C3800
1C3800
000000
000000
000000
1FF800
1FFE00
1FFE00
000700
000700
1FF700
7FFF00
7FFF00
F80F00
E00780
E00780
F80F80
7FFF80
7FFF80
1FF780
ENDCHAR
STARTCHAR aring
ENCODING 229
SWIDTH 585 0
DWIDTH 19 0
BBX 16 21 1 2
BITMAP
01C0
03C0
0630
0620
01C0
01C0
1FF8
1FFE
1FFE
0007
0007
1FE7
7FFF
7FFF
F81F
E007
E007
F81F
7FFF
7FFF
1FE7
ENDCHAR
STARTCHAR ae
ENCODING 230
SWIDTH 585 0
DWIDTH 19 0
BBX 15 17 2 2
BITMAP
FC7C
FC7C
FFFE
038E
038E
038E
038E
7FFE
FFFE
FFFE
E380
E380
E380
E380
FFFC
FF7C
7F7C
ENDCHAR
STARTCHAR ccedilla
ENCODING 231
SWIDTH 585 0
DWIDTH 19 0
BBX 15 21 2 1
BITMAP
1FF0
1FF0
7FFC
FF3C
F83E
E00E
E00E
E000
E000
E00E
E00E
F83E
F83E
7FFC
1FF0
1FF0
01C0
01C0
0780
1E00
1E00
ENDCHAR
STARTCHAR egrave
ENCODING 232
SWIDTH 585 0
DWIDTH 19 0
BBX 15 21 2 2
BITMAP
1E00
1F80
0780
01C0
01C0
0000
1FF0
7FFC
7FFC
F83E
F83E
E00E
FFFE
FFFC
FFFC
E000
E000
F83E
7FFC
7FFC
1FF0
ENDCHAR
STARTCHAR eacute
ENCODING 233
SWIDTH 585 0
DWIDTH 19 0
BBX 15 21 2 2
BITMAP
01F0
01C0
03C0
0700
0700
0000
1FF0
7FFC
7FFC
F83E
F83E
E00E
FFFE
FFFC
FFFC
E000
E000
F83E
7FFC
7FFC
1FF0
ENDCHAR
STARTCHAR ecircumflex
ENCODING 234
SWIDTH 585 0
DWIDTH 19 0
BBX 15 21 2 2
BITMAP
0380
0380
07C0
1C70
1C70
0000
1FF0
7FFC
7FFC
F83E
F83E
E00E
FFFE
FFFC
FFFC
E000
E000
F83E
7FFC
7FFC
1FF0
ENDCHAR
STARTCHAR edieresis
ENCODING 235
SWIDTH 585 0
DWIDTH 20 0
BBX 16 21 2 2
BITMAP
1C70
1C70
1C70
0000
0000
0000
1FF0
7FFC
7FFC
F81F
F81F
E00F
FFFF
FFFC
FFFC
E000
E000
F81F
7FFC
7FFC
1FF0
ENDCHAR
STARTCHAR igrave
ENCODING 236
SWIDTH 585 0
DWIDTH 19 0
BBX 12 22 3 1
BITMAP
F800
FE00
3E00
0700
0700
0000
0000
3F00
3F00
3F00
0700
0700
0700
0700
0700
0700
0700
07C0
07C0
01F0
01F0
00E0
ENDCHAR
STARTCHAR iacute
ENCODING 237
SWIDTH 585 0
DWIDTH 19 0
BBX 10 22 5 1
BITMAP
07C0
0700
1F00
7800
7800
0000
0000
FC00
FC00
FC00
1C00
1C00
1C00
1C00
1C00
1C00
1C00
1F00
1F00
07C0
07C0
0380
ENDCHAR
STARTCHAR icircumflex
ENCODING 238
SWIDTH 585 0
DWIDTH 19 0
BBX 11 22 3 1
BITMAP
0E00
0E00
3F00
F1C0
F1C0
0000
0000
3F00
3F00
3F00
0700
0700
0700
0700
0700
0700
0700
07C0
07C0
01E0
01E0
00E0
ENDCHAR
STARTCHAR idieresis
ENCODING 239
SWIDTH 585 0
DWIDTH 19 0
BBX 11 22 3 1
BITMAP
E380
E380
E380
0000
0000
0000
0000
3F00
3F00
3F00
0700
0700
0700
0700
0700
0700
0700
0780
0780
03E0
03E0
00E0
ENDCHAR
STARTCHAR eth
ENCODING 240
SWIDTH 585 0
DWIDTH 19 0
BBX 16 24 2 1
BITMAP
001C
001C
001C
07FF
07FF
07FF
001C
001C
1FFC
1FFC
7FFC
F81C
F81C
E01C
E01C
E01C
E01C
E01C
E01C
F87C
F87C
7FF8
7FE0
1FE0
ENDCHAR
STARTCHAR ntilde
ENCODING 241
SWIDTH 585 0
DWIDTH 19 0
BBX 16 21 2 2
BITMAP
0718
1FF8
1FF0
18E0
0000
0000
E7F8
FFFE
FFFE
F81F
E007
E007
E007
E007
E007
E007
E007
E007
E007
E007
E007
ENDCHAR
STARTCHAR ograve
ENCODING 242
SWIDTH 585 0
DWIDTH 19 0
BBX 15 22 2 1
BITMAP
1E00
1F80
0780
01C0
01C0
0000
1FF0
1FFC
7FFC
F83E
F83E
E00E
E00E
E00E
E00E
E00E
E00E
F83E
F83E
7FFC
7FF0
1FF0
ENDCHAR
STARTCHAR oacute
ENCODING 243
SWIDTH 585 0
DWIDTH 19 0
BBX 15 22 2 1
BITMAP
00F0
00C0
03C0
0700
0700
0000
1FF0
1FFC
7FFC
F83E
F83E
E00E
E00E
E00E
E00E
E00E
E00E
F83E
F83E
7FFC
7FF0
1FF0
ENDCHAR
STARTCHAR ocircumflex
ENCODING 244
SWIDTH 585 0
DWIDTH 19 0
BBX 15 22 2 1
BITMAP
0380
0380
07C0
1C70
1C70
0000
1FF0
1FFC
7FFC
F83E
F83E
E00E
E00E
E00E
E00E
E00E
E00E
F83E
F83E
7FFC
7FF0
1FF0
ENDCHAR
STARTCHAR otilde
ENCODING 245
SWIDTH 585 0
DWIDTH 19 0
BBX 15 22 2 1
BITMAP
0730
1FF0
1FF0
19C0
0000
0000
1FF0
1FFC
7FFC
F83E
F83E
E00E
E00E
E00E
E00E
E00E
E00E
F83E
F83E
7FFC
7FF0
1FF0
ENDCHAR
STARTCHAR odieresis
ENCODING 246
SWIDTH 585 0
DWIDTH 20 0
BBX 16 22 2 1
BITMAP
1C70
1C70
1C70
0000
0000
0000
1FF0
1FFC
7FFC
F81F
F81F
E00F
E00F
E00F
E00F
E00F
E00F
F81F
F81F
7FFC
7FF0
1FF0
ENDCHAR
STARTCHAR oslash
ENCODING 248
SWIDTH 585 0
DWIDTH 20 0
BBX 16 17 2 2
BITMAP
1FE7
1FE7
3FFF
F81C
F81C
E07F
E0E7
E0E7
E3C7
E707
E707
FE07
381F
381F
FFFC
E7F8
E7F8
ENDCHAR
STARTCHAR ugrave
ENCODING 249
SWIDTH 585 0
DWIDTH 19 0
BBX 15 22 2 1
BITMAP
1F00
1F80
0780
00E0
00E0
0000
E00E
E00E
E00E
E00E
E00E
E00E
E00E
E00E
E00E
E00E
E00E
F83E
F83E
7FFC
7FF0
1FF0
ENDCHAR
STARTCHAR uacute
ENCODING 250
SWIDTH 585 0
DWIDTH 19 0
BBX 15 22 2 1
BITMAP
01F0
01C0
03C0
0E00
0E00
0000
E00E
E00E
E00E
E00E
E00E
E00E
E00E
E00E
E00E
E00E
E00E
F83E
F83E
7FFC
7FF0
1FF0
ENDCHAR
STARTCHAR ucircumflex
ENCODING 251
SWIDTH 585 0
DWIDTH 19 0
BBX 15 22 2 1
BITMAP
0380
0380
0FE0
1C70
1C70
0000
E00E
E00E
E00E
E00E
E00E
E00E
E00E
E00E
E00E
E00E
E00E
F83E
F83E
7FFC
7FF0
1FF0
ENDCHAR
STARTCHAR udieresis
ENCODING 252
SWIDTH 585 0
DWIDTH 19 0
BBX 15 22 2 1
BITMAP
1C70
1C70
1C70
0000
0000
0000
E00E
E00E
E00E
E00E
E00E
E00E
E00E
E00E
E00E
E00E
E00E
F83E
F83E
7FFC
7FF0
1FF0
ENDCHAR
STARTCHAR yacute
ENCODING 253
SWIDTH 585 0
DWIDTH 19 0
BBX 15 21 2 2
BITMAP
01F0
01C0
07C0
0E00
0E00
0000
E00E
E03E
E03E
E0FE
F1FE
F1FE
7FCE
7FCE
1F8E
000E
000E
003E
1FFC
1FF0
1FF0
ENDCHAR
STARTCHAR thorn
ENCODING 254
SWIDTH 585 0
DWIDTH 20 0
BBX 16 20 2 2
BITMAP
E000
E000
E000
E3F0
E3F0
FFFC
FC1E
FC1E
E00E
E00E
E00F
E00F
E00F
FC1F
FFFC
FFFC
E3F0
E000
E000
E000
ENDCHAR
STARTCHAR ydieresis
ENCODING 255
SWIDTH 585 0
DWIDTH 20 0
BBX 16 21 2 2
BITMAP
1C70
1C70
1C70
0000
0000
0000
E00E
E01E
E01E
E07E
F9FE
F9FE
7FEF
7FEF
1F8F
000F
000F
001F
1FFC
1FF0
1FF0
ENDCHAR
STARTCHAR semicolon.dup4
ENCODING 894
SWIDTH 146 0
DWIDTH 5 0
BBX 4 20 0 0
BITMAP
30
30
30
00
00
00
00
00
00
00
00
00
30
30
30
30
60
60
C0
C0
ENDCHAR
STARTCHAR quoteleft
ENCODING 8216
SWIDTH 585 0
DWIDTH 19 0
BBX 5 9 9 14
BITMAP
18
78
60
E0
F8
F8
F8
F8
F8
ENDCHAR
STARTCHAR quoteright
ENCODING 8217
SWIDTH 585 0
DWIDTH 19 0
BBX 5 9 5 14
BITMAP
F8
F8
F8
F8
F8
38
30
F0
C0
ENDCHAR
STARTCHAR quotedblleft
ENCODING 8220
SWIDTH 585 0
DWIDTH 19 0
BBX 13 9 3 14
BITMAP
1818
1818
6060
E0E0
F8F8
F8F8
F8F8
F8F8
F8F8
ENDCHAR
STARTCHAR quotedblright
ENCODING 8221
SWIDTH 585 0
DWIDTH 19 0
BBX 13 10 3 13
BITMAP
F8F8
F8F8
F8F8
F8F8
F8F8
3838
3030
3030
C0C0
C0C0
ENDCHAR
STARTCHAR bullet
ENCODING 8226
SWIDTH 585 0
DWIDTH 19 0
BBX 10 8 4 9
BITMAP
3F00
FFC0
FFC0
FFC0
FFC0
FFC0
3F00
3F00
ENDCHAR
STARTCHAR ellipsis
ENCODING 8230
SWIDTH 585 0
DWIDTH 19 0
BBX 15 3 2 2
BITMAP
E38E
E38E
E38E
ENDCHAR
STARTCHAR guilsinglleft
ENCODING 8249
SWIDTH 585 0
DWIDTH 19 0
BBX 9 14 3 2
BITMAP
0180
0180
0700
0E00
0E00
3800
F000
F000
3800
0E00
0E00
0700
0380
0180
ENDCHAR
STARTCHAR guilsinglright
ENCODING 8250
SWIDTH 585 0
DWIDTH 19 0
BBX 9 14 4 2
BITMAP
C000
C000
F000
3800
3800
0E00
0780
0780
0E00
3800
3800
F000
C000
C000
ENDCHAR
STARTCHAR fraction
ENCODING 8260
SWIDTH 585 0
DWIDTH 19 0
BBX 15 21 2 2
BITMAP
000E
000E
000E
000E
000E
003E
007C
0070
01F0
03E0
0380
0F80
1F00
1C00
7C00
F800
E000
E000
E000
E000
E000
ENDCHAR
STARTCHAR franc
ENCODING 8355
SWIDTH 585 0
DWIDTH 19 0
BBX 16 21 1 2
BITMAP
3FFF
3FFF
3FFF
3800
3800
3800
3800
3800
3800
3FF8
3FF8
3FF8
3800
3800
3800
FF00
FF00
3800
3800
3800
3800
ENDCHAR
STARTCHAR lira
ENCODING 8356
SWIDTH 585 0
DWIDTH 19 0
BBX 15 24 2 2
BITMAP
03F0
0FFC
0FFC
1F1E
1F1E
1C0E
1C00
1C00
1C00
FFF0
FFF0
FFF0
1C00
1C00
FFF0
FFF0
FFF0
1C00
1C00
1C00
7800
FFFE
FFFE
FFFE
ENDCHAR
STARTCHAR peseta
ENCODING 8359
SWIDTH 585 0
DWIDTH 19 0
BBX 16 21 1 2
BITMAP
F800
C800
CE00
C600
C600
C600
C600
C600
C6C0
C6C0
C7C7
CFFF
F8DB
F8DB
C0D8
C0DF
C0DF
C0C3
C0DB
C0DB
C0DF
ENDCHAR
STARTCHAR Euro
ENCODING 8364
SWIDTH 585 0
DWIDTH 19 0
BBX 16 24 1 2
BITMAP
01F8
01F8
07FE
0F87
0F87
3E00
3800
FFC0
FFC0
FFC0
3800
3800
FFC0
FFC0
FFC0
3800
3800
3800
3E00
1E80
0F87
07FE
07FE
01F8
ENDCHAR
STARTCHAR trademark
ENCODING 8482
SWIDTH 585 0
DWIDTH 19 0
BBX 16 9 1 14
BITMAP
FFC3
FFC3
18FF
18FF
18DB
18DB
18C3
18C3
18C3
ENDCHAR
STARTCHAR arrowleft
ENCODING 8592
SWIDTH 585 0
DWIDTH 19 0
BBX 16 15 1 5
BITMAP
01C0
0100
0700
0E00
0800
3800
FFFF
FFFF
FFFF
3800
3E00
0E00
0700
07C0
01C0
ENDCHAR
STARTCHAR arrowup
ENCODING 8593
SWIDTH 585 0
DWIDTH 19 0
BBX 15 15 2 5
BITMAP
0380
0380
0380
07E0
07E0
07E0
1C70
1C70
1C70
381C
381C
381C
E00E
E00E
E00E
ENDCHAR
STARTCHAR arrowright
ENCODING 8594
SWIDTH 585 0
DWIDTH 19 0
BBX 16 15 2 5
BITMAP
0380
03E0
00E0
0070
007C
001C
FFFF
FFFF
FFFF
001C
0010
0070
00E0
0080
0380
ENDCHAR
STARTCHAR arrowdown
ENCODING 8595
SWIDTH 585 0
DWIDTH 19 0
BBX 15 15 2 5
BITMAP
E00E
E00E
E00E
381C
381C
381C
1C70
1C70
1C70
07E0
07E0
07E0
0380
0380
0380
ENDCHAR
STARTCHAR arrowboth
ENCODING 8596
SWIDTH 585 0
DWIDTH 19 0
BBX 15 16 2 3
BITMAP
0180
0180
01C0
01F0
01F0
FFFC
FFFE
FFFE
FFFE
FFFC
FFFC
01F0
01F0
01C0
0180
0180
ENDCHAR
STARTCHAR fraction.dup5
ENCODING 8725
SWIDTH 585 0
DWIDTH 19 0
BBX 15 21 2 2
BITMAP
000E
000E
000E
000E
000E
003E
007C
0070
01F0
03E0
0380
0F80
1F00
1C00
7C00
F800
E000
E000
E000
E000
E000
ENDCHAR
STARTCHAR triagup
ENCODING 9650
SWIDTH 585 0
DWIDTH 19 0
BBX 16 19 1 3
BITMAP
01C0
01C0
01C0
07E0
07E0
07E0
07F8
1FF8
1FF8
1FF8
3FFC
3FFC
3FFC
FFFF
FFFF
FFFF
FFFF
FFFF
FFFF
ENDCHAR
STARTCHAR triagrt
ENCODING 9658
SWIDTH 585 0
DWIDTH 19 0
BBX 13 19 3 3
BITMAP
F800
F800
FC00
FC00
FF00
FFC0
FFC0
FFE0
FFF8
FFF8
FFF8
FFE0
FFE0
FFC0
FF00
FF00
FC00
F800
F800
ENDCHAR
STARTCHAR triagdn
ENCODING 9660
SWIDTH 585 0
DWIDTH 19 0
BBX 16 19 1 3
BITMAP
FFFF
FFFF
FFFF
FFFF
FFFF
FFFF
3FFC
3FFC
3FFC
1FF8
1FF8
1FF8
1FE0
07E0
07E0
07E0
01C0
01C0
01C0
ENDCHAR
STARTCHAR triaglf
ENCODING 9668
SWIDTH 585 0
DWIDTH 19 0
BBX 13 19 3 3
BITMAP
00F8
00F8
01F8
01F8
07F8
1FF8
1FF8
3FF8
FFF8
FFF8
FFF8
3FF8
3FF8
1FF8
07F8
07F8
01F8
00F8
00F8
ENDCHAR
STARTCHAR .notdef
ENCODING -1
SWIDTH 585 0
DWIDTH 20 0
BBX 19 28 0 0
BITMAP
FFFFE0
FFFFE0
E000E0
E000E0
D00160
D80260
C80260
C40460
C40C60
C20860
C11060
C13060
C0A060
C0C060
C04060
C0A060
C1B060
C11060
C20860
C60C60
C40460
C80260
D80260
D00160
E000E0
E000E0
FFFFE0
FFFFE0
ENDCHAR
STARTCHAR nonmarkingreturn
ENCODING -1
SWIDTH 585 0
DWIDTH 19 0
BBX 1 1 0 0
BITMAP
00
ENDCHAR
ENDFONT
